# xmcd
#
# Track frame offsets:
#	150
#	17984
#	28561
#	48218
#	72830
#	94415
#	108324
#	126485
#	139401
#	154825
#	163353
#	179235
#	199244
#	216903
#
# Disc length: 3208 seconds
#
# Revision: 1
# Processed by: cddbd v1.5.2PL0 Copyright (c) Steve Scherf et al.
# Submitted via: EZCDAudioConverter 2.1.7.1
#
DISCID=dc0c860e
DTITLE=V/A - A Monstrous Psychedelic Bubble Exploding In Your Mind
DYEAR=1900
DGENRE=MOJO
TTITLE0=Pop Levi - Blue Honey
TTITLE1=Yellow Moon Band - Entangled
TTITLE2=July - Dandelion Seeds
TTITLE3=Amorphous Androgynous - Falling Down
TTITLE4=Dungen - Sätt Att Se [Instrumental]
TTITLE5=Donovan - Three Kingfishers
TTITLE6=Can - Flow Motion
TTITLE7=White Noise - Love Without Sound
TTITLE8=Betty Davis - Game Is My Middle Name
TTITLE9=Ed Askew - Love Is Everyone
TTITLE10=Jean-Claude Vannier - Les Mouches
TTITLE11=Comus - Diana
TTITLE12=Shogun Kinotichi - Mulberg
TTITLE13=Amorphous Androgynous - Opus Of The Black Sun
EXTD=
EXTT0=
EXTT1=
EXTT2=
EXTT3=
EXTT4=
EXTT5=
EXTT6=
EXTT7=
EXTT8=
EXTT9=
EXTT10=
EXTT11=
EXTT12=
EXTT13=
PLAYORDER=
